<?xml version="1.0" standalone="no"?>
<!DOCTYPE svg PUBLIC "-//W3C//DTD SVG 1.1//EN" "http://www.w3.org/Graphics/SVG/1.1/DTD/svg11.dtd">
<svg xmlns="http://www.w3.org/2000/svg">
<metadata>Generated by Fontastic.me</metadata>
<defs>
<font id="funfare" horiz-adv-x="512">
<font-face font-family="funfare" units-per-em="512" ascent="480" descent="-32"/>
<missing-glyph horiz-adv-x="512" />

<glyph glyph-name="1" unicode="&#97;" d="M512 217l-96 95 0 144-64 0 0-81-96 98-256-256 0-17 63 0 0-161 161 0 0 98 64 0 0-98 159 0 0 161 65 0z"/>
<glyph glyph-name="2" unicode="&#98;" d="M512 398c0 17-14 32-32 32l-448 0c-18 0-32-15-32-32l0-45 512 0z m0-103l-512 0 0-181c0-17 14-32 32-32l449 0c17 0 33 14 33 32l0 181z"/>
<glyph glyph-name="3" unicode="&#99;" d="M512 415l0 17-512 0 0-17 256-127z m-256-171l-256 126 0-291 512 0 0 291z"/>
<glyph glyph-name="4" unicode="&#100;" d="M505 433c-5 6-12 9-20 9l-367 0-5 31c-2 13-14 22-26 22l-60 0c-15 0-27-12-27-26 0-15 12-27 27-27l38 0 49-297c0-2 0-2 2-3 0-2 0-4 2-4-2-1 0-3 1-5 0-2 2-2 2-3 2-2 4-2 5-4 2 0 2-1 4-1 3-2 7-2 10-2l292 0c15 0 27 12 27 27 0 16-12 27-27 27l-270 0-5 28 300 0c14 0 24 10 26 22l29 184c2 9-2 16-7 22z m-285-177l-72 0-8 53 80 0z m0 80l-80 0c-2 0-3 0-3 0l-11 53 92 0 0-53z m106-80l-80 0 0 53 80 0z m0 80l-80 0 0 53 80 0z m109-80l-83 0 0 53 92 0z m12 80l-94 0 0 53 103 0z m-227-280c0-22-19-39-39-39-22 0-39 17-39 39 0 23 18 40 39 40 20 0 39-17 39-40z m239 0c0-22-19-39-39-39-22 0-39 17-39 39 0 23 18 40 39 40 20 0 39-17 39-40z"/>
<glyph glyph-name="5" unicode="&#101;" d="M505 433c-5 6-12 9-20 9l-367 0-5 31c-2 13-14 22-26 22l-60 0c-15 0-27-12-27-26 0-15 12-27 27-27l38 0 49-297c0-2 0-2 2-3 0-2 0-4 2-4-2-1 0-3 1-5 0-2 2-2 2-3 2-2 4-2 5-4 2 0 2-1 4-1 3-2 7-2 10-2l292 0c15 0 27 12 27 27 0 16-12 27-27 27l-270 0-5 28 300 0c14 0 24 10 26 22l29 184c2 9-2 16-7 22z m-326-337c-22 0-39-19-39-40 0-22 19-39 39-39 22 0 39 17 39 39 2 23-17 40-39 40z m239 0c-22 0-39-19-39-40 0-22 19-39 39-39 22 0 39 17 39 39 2 23-17 40-39 40z"/>
<glyph glyph-name="6" unicode="&#102;" d="M0 464l0-416 512 0 0 416z m480-384l-448 0 0 352 448 0z m-128 272c0-28 22-48 47-48 28 0 48 22 48 48 0 27-22 47-48 47-25 0-47-20-47-47z m95-239l-384 0 97 256 128-161 64 48z"/>
<glyph glyph-name="7" unicode="&#103;" d="M329 61l-290 0 0 390 290 0 0-67 40 43 0 22c0 22-17 39-40 39l-290 0c-22 0-39-17-39-39l0-386c0-22 17-39 39-39l290 0c23 0 40 17 40 39l0 128-40-43z m-32 318c0 10-9 19-19 19l-188 0c-10 0-18-9-18-19 0-10 8-19 18-19l186 0c12 0 21 9 21 19z m-27-62l-180 0c-10 0-18-8-18-18 0-11 8-19 18-19l146 0z m-72-80l-108 0c-10 0-18-8-18-19 0-10 8-18 18-18l86 0z m-126-100c0-11 8-19 18-19l64 0c0 1 0 3 0 5l8 32-72 0c-10 0-18-8-18-18z m303 254l-11-14-135-150-11-12 76-67 10 12 135 151 12 13z m-18-82l-89-99c-2-2-3-2-5-2-2 0-4 0-5 2l-5 3c-4 2-4 7 0 9l88 99c2 2 4 2 5 2 2 0 4 0 6-2l5-4c1-1 1-6 0-8z m30 34l-6-8c-2-2-4-2-6-2-1 0-3 0-5 2l-5 3c-1 2-1 3-1 5 0 2 0 3 1 5l7 9c3 1 7 1 10-2l5-3c2-2 2-6 0-9z m0 61l-5-5 75-68 17 21-73 66z m118 14l-42 38c-6 3-11 5-16 5-5 0-12-4-15-7l-24-27 75-67 26 27c1 6 3 11 3 16 0 7-3 12-7 15z m-25-31l-47 41 14 14 45-41z m-272-182l-25-89c-2-3 0-8 3-10 3-4 7-4 12-2l85 36z m-3-60l10 36 43-39-34-14z"/>
<glyph glyph-name="8" unicode="&#104;" d="M283 468l0-425 229 0z m17-65l185-343-185 0z m-300-359l229 0 0 424z"/>
<glyph glyph-name="9" unicode="&#105;" d="M468 0l0 229-424 0z m-16 212l0-185-343 185z m-408 71l424 0 0 229z"/>
<glyph glyph-name="10" unicode="&#106;" d="M271 0c-46 0-94 12-136 38-121 73-159 230-86 351 74 121 231 159 352 85 9-5 15-10 24-15l20 36c4 5 9 7 14 7 5-2 10-5 10-10l31-125c2-7-3-14-10-15l-125-31c-5-2-10 0-13 5-4 5-4 10 0 15l23 36c-6 7-15 12-22 17-77 46-176 22-223-54-46-77-22-176 54-224 28-17 58-24 87-24z"/>
<glyph glyph-name="11" unicode="&#107;" d="M241 94c30 0 59 7 87 24 76 46 100 147 54 223-46 77-146 101-223 55-7-7-14-12-22-19l23-39c4-5 2-10 0-15-3-6-8-7-13-6l-125 33c-7 2-12 8-10 15l31 125c1 5 5 10 10 10 5 0 10-2 14-7l22-36c7 6 15 12 24 16 121 73 278 34 351-86 74-121 34-278-85-351-43-26-91-38-137-38z"/>
<glyph glyph-name="12" unicode="&#108;" d="M449 0l0 128-65 0 0-65-256 0 0 384 256 0 0-63 65 0 0 128-386 0 0-512z m-97 160l97 96-97 96 0-64-144 0 0-64 144 0z"/>
<glyph glyph-name="13" unicode="&#109;" d="M0 512l0-512 512 0 0 512z m483-483l-454 0 0 454 454 0z m-278 416l102 0 0-102-102 0z m0-138l102 0 0-102-102 0z m0-138l102 0 0-102-102 0z m-138 276l102 0 0-102-102 0z m0-138l102 0 0-102-102 0z m0-138l102 0 0-102-102 0z m276 276l102 0 0-102-102 0z m0-138l102 0 0-102-102 0z m0-138l102 0 0-102-102 0z"/>
<glyph glyph-name="26" unicode="&#110;" d="M411 49l-155 156-155-156-52 52 156 155-156 155 52 52 155-156 155 156 52-52-156-155 156-155z"/>
<glyph glyph-name="25" unicode="&#111;" d="M512 220l-512 0 0 72 512 0z"/>
<glyph glyph-name="24" unicode="&#112;" d="M512 220l-220 0 0-220-72 0 0 220-220 0 0 72 220 0 0 220 72 0 0-220 220 0z"/>
<glyph glyph-name="23" unicode="&#113;" d="M437 437c-99 99-263 99-362 0-99-99-99-263 0-362 99-99 263-99 362 0 99 99 99 263 0 362z m-326-36c73 73 189 79 270 17l-125-126-160-161c-64 81-58 197 15 270z m290-290c-73-73-189-79-270-17l285 285c64-79 58-195-15-268z"/>
<glyph glyph-name="22" unicode="&#114;" d="M365 328l-37 37-72-73-72 73-37-37 73-72-73-72 37-37 72 73 72-73 37 37-73 72z m72 109c-99 99-263 99-362 0-99-99-99-263 0-362 99-99 263-99 362 0 99 99 99 263 0 362z m-326-326c-80 80-80 210 0 290 80 80 210 80 290 0 80-80 80-210 0-290-80-79-210-79-290 0z"/>
<glyph glyph-name="21" unicode="&#115;" d="M282 384l-52 0 0-102-102 0 0-52 102 0 0-102 52 0 0 102 102 0 0 52-102 0z m-26 128c-140 0-256-116-256-256 0-140 116-256 256-256 140 0 256 116 256 256 0 140-116 256-256 256z m0-461c-113 0-205 92-205 205 0 113 92 205 205 205 113 0 205-92 205-205 0-113-92-205-205-205z"/>
<glyph glyph-name="20" unicode="&#116;" d="M217 143c7 0 12 2 15 7l96 89c5 5 8 10 8 17 0 7-3 14-8 17l-96 89c-5 3-10 7-15 7-14 0-24-11-24-24 0-7 3-14 8-17l77-70-77-70c-5-5-8-11-8-17 0-16 10-28 24-28z m39-143c142 0 256 114 256 256 0 142-114 256-256 256-142 0-256-114-256-256 0-142 114-256 256-256z m0 464c114 0 208-94 208-208 0-114-94-208-208-208-114 0-208 94-208 208 0 114 94 208 208 208z"/>
<glyph glyph-name="19" unicode="&#117;" d="M295 369c-7 0-12-2-15-7l-96-89c-5-5-8-10-8-17 0-7 3-14 8-17l96-89c5-3 10-7 15-7 14 0 24 11 24 24 0 7-3 14-8 17l-75 72 76 70c5 5 9 10 9 17-2 14-12 26-26 26z m-39 143c-142 0-256-114-256-256 0-142 114-256 256-256 142 0 256 114 256 256 0 142-114 256-256 256z m0-464c-114 0-208 94-208 208 0 114 94 208 208 208 114 0 208-94 208-208 0-114-94-208-208-208z"/>
<glyph glyph-name="18" unicode="&#118;" d="M234 335l-123 0 0-62 184 0 0 62z m264-256l-105 109c-4 3-7 5-11 7 16 30 24 68 24 114 0 135-68 203-205 201-134 0-201-68-201-205 2-134 70-201 205-201 49 0 89 10 119 27 2-3 4-6 7-8l106-109c17-17 46-17 63 1 17 17 15 46-2 64z m-295 88c-94 0-140 46-140 140 0 94 46 140 140 140 94 0 140-46 140-140 0-94-46-140-140-140z"/>
<glyph glyph-name="17" unicode="&#119;" d="M234 398l-62 0 0-63-61 0 0-62 61 0 0-61 62 0 0 61 61 0 0 62-61 0z m264-319l-105 109c-4 3-7 5-11 7 16 30 24 68 24 114 0 135-68 203-205 201-134 0-201-68-201-205 2-134 70-201 205-201 49 0 89 10 119 27 2-3 4-6 7-8l106-109c17-17 46-17 63 1 17 17 15 46-2 64z m-295 88c-94 0-140 46-140 140 0 94 46 140 140 140 94 0 140-46 140-140 0-94-46-140-140-140z"/>
<glyph glyph-name="16" unicode="&#120;" d="M416 512l-320 0c-53 0-96-43-96-96l0-319c0-54 43-97 96-97l319 0c53 0 95 43 95 96l0 320c2 53-41 96-94 96z m-254-321c-36 0-65 29-65 65 0 36 29 65 65 65 36 0 65-29 65-65 0-36-29-65-65-65z m190 0c-36 0-65 29-65 65 0 36 29 65 65 65 35 0 64-29 64-65 0-36-29-65-64-65z"/>
<glyph glyph-name="15" unicode="&#121;" d="M427 512l-342 0c-46 0-85-39-85-85l0-342c0-47 39-85 85-85l342 0c47 0 85 38 85 85l0 342c0 46-38 85-85 85z m8-256l-83 0 0-224-96 0 0 224-46 0 0 73 46 0 0 48c0 65 27 103 104 103l87 0 0-79-72 0c-20 0-23-10-23-32l0-40 95 0z"/>
<glyph glyph-name="14" unicode="&#122;" d="M96 456l0-9-96 0 0-63 96 0 0-9c0-13 10-23 23-23l81 0c13 0 24 10 24 23l0 9 288 0 0 65-288 0 0 7c0 13-11 24-24 24l-81 0c-11 0-23-11-23-24z m97-7l0-63-65 0 0 63z m95-154l0-8-288 0 0-63 288 0 0-9c0-14 11-24 24-24l81 0c13 0 23 10 23 24l0 9 96 0 0 63-96 0 0 8c0 14-10 24-23 24l-81 0c-13 0-24-10-24-24z m96-7l0-63-63 0 0 63z m-288-151l0-9-96 0 0-63 96 0 0-9c0-13 10-24 23-24l81 0c13 0 24 11 24 24l0 9 288 0 0 63-288 0 0 9c0 13-11 23-24 23l-81 0c-11 0-23-12-23-23z m97-9l0-63-65 0 0 63z"/>
<glyph glyph-name="27" unicode="&#65;" d="M510 387l-317-317c-4-3-7-3-10 0l-181 181c-4 3-4 7 0 10l44 44c3 4 7 4 10 0l132-131 268 268c3 3 7 3 10 0l44-44c2-2 2-7 0-11z"/>
<glyph glyph-name="28" unicode="&#66;" d="M256 512c-142 0-256-114-256-256 0-142 114-256 256-256 142 0 256 114 256 256 0 142-114 256-256 256z m0-464c-114 0-208 94-208 208 0 114 94 208 208 208 114 0 208-94 208-208 0-114-94-208-208-208z m-96 184l96-95 96 95-64 0 0 143-64 0 0-143z"/>
<glyph glyph-name="30" unicode="&#68;" d="M247 505c7 0 12 0 19 0 2 0 4 0 5-2 21-3 36-13 41-34 7-24 2-44-15-63-5-7-12-12-19-17-8-8-13-19-12-31 2-12 4-22 16-29 20-15 47-6 56 19 3 10 3 22 3 33 0 5 0 12 2 17 3 22 15 37 36 44 20 9 39 5 56-10 21-17 28-46 17-68-10-24-34-36-59-35-7 0-14 0-21 0-19 0-31-10-36-27-5-15 0-27 16-32 20-7 37-4 52 12 7 6 14 13 21 20 5 5 12 9 19 10 25 9 58-8 66-36 2-3 2-6 4-11 0-7 0-12 0-19 0-2 0-4-2-5-7-38-38-52-67-46-10 1-18 8-25 15-9 7-16 15-24 22-15 12-34 14-50 4-10-7-13-16-11-28 5-20 20-32 40-32 7 0 12 0 19 1 41 6 74-34 60-73-10-29-38-46-67-41-25 5-44 29-46 55 0 13 0 27-3 41-3 18-15 27-36 25-2 0-3 0-5 0-15-1-27-10-31-22-3-14-1-27 7-39 5-7 10-12 15-17 16-16 21-34 21-55-2-17-10-31-26-39-18-9-39-9-59-2-12 4-23 12-26 26-7 22-3 44 14 63 6 7 13 14 20 19 10 10 15 22 14 37-2 14-9 26-22 31-24 7-41-2-50-26-3-10-3-22-3-35 0-6 0-12-2-17-7-31-38-48-68-41-31 6-52 41-45 70 7 27 34 47 65 44 7 0 14 0 21 0 6 0 13 2 20 5 9 7 15 15 17 26 2 10 0 18-10 24-14 8-36 13-53-2-7-5-14-12-20-19-12-14-28-19-47-17-23 3-39 15-46 38-1 5-3 10-3 15 0 3 0 8 0 12 0 2 0 3 2 3 5 22 15 38 37 45 22 6 41 3 57-14 3-3 6-7 12-12 3-3 6-7 10-9 13-11 37-11 53-1 5 3 8 7 10 13 3 19-14 40-31 41-8 0-17 2-25 2-9 0-17 0-28 4-32 8-49 39-39 69 9 23 24 38 48 41 22 4 41-5 54-22 7-12 11-24 11-37 0-16 0-29 6-43 6-14 16-20 30-20 11 0 23 1 32 12 10 13 10 37-2 51-5 5-12 10-17 15-13 12-20 26-22 43-3 29 12 51 39 58 2 1 7 1 10 3z m11-292c22 0 41 21 39 45 0 18-19 39-44 39-21 0-41-21-40-41 2-29 21-41 45-43z"/>
<glyph glyph-name="32" unicode="&#70;" d="M282 282l-154 0 0-52 256 0 0 52z m-26 230c-140 0-256-116-256-256 0-140 116-256 256-256 140 0 256 116 256 256 0 140-116 256-256 256z m0-461c-113 0-205 92-205 205 0 113 92 205 205 205 113 0 205-92 205-205 0-113-92-205-205-205z"/>
<glyph glyph-name="29" unicode="&#67;" d="M451 341c-2-8-6-17-7-24-4-17-4-17 10-23 0 0 0-2 2-4-33-73-63-150-77-232-5 0-7 2-9 2-29 7-58 15-87 22-68 17-136 34-204 51-6 4-11 4-11-5 4-2 5-3 9-3 58-24 116-48 174-70 44-17 87-36 131-55 0 0 2 0 2 0 0 2 2 5 2 7 41 99 80 198 121 297 2 3 3 8 5 12-20 8-41 17-61 25z m-110-170c0 5 0 8 0 13 0 106 0 210 0 316 0 5 0 9 0 14-112-2-227-2-341-2 0-114 0-229 0-341 5 0 9 0 14 0 105 0 210 0 315 0 4 0 7 0 12 0z m-42 85c-12 0-26 0-36 0-4 0-7 3-7 7-7 19-19 34-39 41-4 1-10 1-14 0-20-7-39-7-60 0-3 1-10 1-13 0-21-7-33-21-40-41-3-5-6-7-13-7-12 0-22 0-34 0 0 72 0 142 0 213 85 0 169 0 254 0 2-71 2-141 2-213z m-65 128c0-36-29-63-63-63-36 0-65 29-65 65 0 34 29 63 63 63 38 0 65-29 65-65z m-22-22c-29 0-55 0-84 0 10-17 24-26 43-26 18 0 32 9 41 26z m150-176c0-12 0-24 0-36-84 0-164 0-246 0 0 0 0-2 0-2 82-20 164-40 246-63 29 111 56 220 83 331-29 7-56 14-83 21 0-14 0-26 0-36 0-5 2-8 7-8 8-2 15-4 24-7-6-19-9-36-14-53-12-48-21-97-17-147z"/>
<glyph glyph-name="33" unicode="&#69;" d="M421 448l-68 0 0 45c0 8-7 15-15 15 0 0-3 0-3 0l-161 0c-8 0-15-7-15-15l0-43-68 0c-20-2-36-17-36-35l0-56 31 0 0-320c0-20 15-35 35-35l270 0c20 0 35 15 35 35l0 320 28 0 0 56c0 18-13 33-33 33z m-232 30l131 0 0-28-131 0z m204-439c0-2 0-2-2-2l-270 0c-2 0-2 0-2 2l0 320 277 0 0-320z m31 351l-336 0 0 25c0 2 0 2 3 2l330 0c3 0 3 0 3-2z m-111-68l30 0 0-260-30 0z m-73 0l32 0 0-260-32 0z m-74 0l31 0 0-260-31 0z"/>
<glyph glyph-name="34" unicode="&#71;" d="M70 502c29 5 90 10 147 10 70 0 112-7 148-29 36-19 60-53 60-99 0-44-26-87-84-108l0-1c58-16 101-60 101-125 0-46-20-82-53-107-36-26-97-43-196-43-56 0-97 3-123 7z m113-193l37 0c60 0 92 24 92 61 0 38-29 58-80 58-24 0-39-1-48-3l0-116z m0-224c12-1 24-1 44-1 51 0 97 18 97 71 0 52-46 72-102 72l-39 0z"/>
<glyph glyph-name="35" unicode="&#72;" d="M102 12c17 2 31 5 38 10 10 7 19 24 26 48l95 346c4 14 7 24 7 29 2 6 2 12 2 18 0 11-4 20-12 25-9 5-22 9-43 9l0 15 195 0 0-12c-21-3-35-7-43-14-9-6-15-20-22-44l-96-346c-3-12-5-23-7-31-1-9-1-14-1-19 0-12 5-20 13-26 9-5 22-6 40-6l0-14-192 0z"/>
<glyph glyph-name="36" unicode="&#73;" d="M0 505l512 0 0-34-512 0z m0-78l346 0 0-34-346 0z m0-77l454 0 0-34-454 0z m0-77l512 0 0-34-512 0z m0-77l340 0 0-34-340 0z m0-77l512 0 0-34-512 0z m0-78l384 0 0-34-384 0z"/>
<glyph glyph-name="37" unicode="&#74;" d="M0 505l512 0 0-34-512 0z m166-78l346 0 0-34-346 0z m-108-77l454 0 0-34-454 0z m-58-77l512 0 0-34-512 0z m172-77l340 0 0-34-340 0z m-172-77l512 0 0-34-512 0z m128-78l384 0 0-34-384 0z"/>
<glyph glyph-name="38" unicode="&#75;" d="M43 505l426 0 0-34-426 0z m41-78l346 0 0-34-346 0z m-55-77l454 0 0-34-454 0z m-29-77l512 0 0-34-512 0z m87-77l340 0 0-34-340 0z m-87-77l512 0 0-34-512 0z m43-78l426 0 0-34-426 0z"/>
<glyph glyph-name="39" unicode="&#76;" d="M425 305l-10 0 0 47c0 87-69 158-154 160-2 0-7 0-8 0-86-2-154-73-154-160l0-47-12 0c-15 0-27-15-27-35l0-234c0-19 12-36 27-36l338 0c15 0 27 15 27 36l0 234c0 20-12 35-27 35z m-137-151l0-70c0-9-6-16-15-16l-34 0c-9 0-15 7-15 16l0 70c-9 8-12 18-12 30 0 23 17 41 39 43 2 0 7 0 8 0 23-2 40-20 40-43 1-13-4-24-11-30z m62 151l-188 0 0 47c0 51 41 93 94 93 51 0 94-42 94-93z"/>
<glyph glyph-name="31" unicode="&#77;" d="M444 137c-30 16-76 53-141 66 17 20 30 50 43 86 7 22 5 40 5 65 0 21 5 48 0 66-16 55-53 71-96 71-43 0-81-16-96-71-5-18 0-48 0-66 0-25-3-43 7-65 13-36 26-68 43-86-65-13-111-50-141-66-63-30-63-63-63-63l0-12c0-23 23-43 45-43l412 0c27 0 45 23 45 45l0 10c0 0 0 33-63 63z"/>
<glyph glyph-name="40" unicode="&#78;" d="M454 343c0-2 0-2 0 0 0-3 0-5-2-8l-8-16 68 0 0 22c0 16-15 29-34 29l-5 0-14-24c0-1-3-3-5-3z m-12 111l-58 12-32-60 100-56 33 61z m-408-84c-19 0-34-13-34-29l0-22 294 0 27 51z m184-206l11-55 7-36 34 14 51 22 15 29 109 200-100 55-109-200z m58-62l-32-13-5 32z m130 145l-78-143c-2-2-2-3-4-3l-85-36c-2 0-2 0-3 0-2 0-4 0-4 2-2 1-3 3-3 5l-16 90c0 2 0 4 2 5l44 80-259 0 0-172c0-15 15-29 34-29l444 0c19 0 34 14 34 29l0 172z"/>
<glyph glyph-name="41" unicode="&#79;" d="M309 398c24-16 41-40 43-70 10-5 20-7 32-7 41 0 75 34 75 75 0 41-34 75-75 75-41 0-75-32-75-73z m-50-154c41 0 76 34 76 75 0 41-35 75-76 75-41 0-75-34-75-75 0-41 34-75 75-75z m33-5l-63 0c-53 0-96-43-96-96l0-80 4-2c51-15 93-20 131-20 70 0 111 20 114 22l5 2 0 78c0 53-42 96-95 96z m124 77l-63 0c0-26-12-48-29-65 48-14 82-58 82-109l0-24c63 1 99 20 101 20l5 2 0 78c0 55-43 98-96 98z m-288 5c15 0 29 5 39 12 4 24 17 44 34 60 0 1 0 3 0 3 0 41-34 75-75 75-41 0-75-34-75-75 2-41 36-75 77-75z m68-70c-17 17-27 39-29 65-1 0-5 0-7 0l-64 0c-53 0-96-43-96-96l0-80 5-2c41-12 77-19 108-20l0 24c1 53 35 95 83 109z"/>
<glyph glyph-name="42" unicode="&#80;" d="M305 160c0-1 0-3-1-3-4-5-9-10-17-17-9-7-14-12-19-15-5-9-10-9-17 0-2 1-9 8-24 20l-5 0c-14 0-21-8-21-26 0-1 0-3 0-6 0-4 0-7 0-9 0-5-3-8-12-8l-46 0c-5 0-8 1-8 5-4 20-5 30-5 30l-9 9c-2 0-2 0-3 2-2 1-2 1-4 1-1 2-3 4-5 2-3 0-5-2-7-5-12-9-20-14-23-17-4-5-7-5-12 0-7 7-18 19-33 34-3 5-3 9 0 14 2 3 4 6 9 12 5 5 6 8 8 10 2 2 4 5 4 12-4 10-12 17-26 17-3 0-7 0-10 2-4 1-7 1-7 1-9 0-12 4-12 7l0 46c0 5 3 9 12 9 17 3 26 5 27 5 5 0 9 3 12 8 7 12 5 21-5 26-5 7-8 12-12 17-3 5-3 10 0 14 15 15 27 27 36 34 5 3 10 3 15 0 5-5 11-10 21-17 2-2 5-4 13-4 9 2 14 12 18 28l0 5c3 10 5 17 6 19 2 1 9 1 19 1l29 0c10 0 16-3 16-10 3-10 5-22 5-31 0-5 1-8 6-8 2 0 7-2 14-7 2 2 7 7 14 12 7 5 12 8 15 12 5 5 10 5 15 0l31-31c5-5 5-10 0-17-2-2-3-5-8-10-5-7-9-10-11-12-1-2-1-5-1-14 1-13 10-20 27-20l9 0c10-2 17-9 17-21l0-34c0-7-4-10-12-10-2 0-7 0-14-2-7-2-12-2-15-2-9 0-12-3-12-8l0-3c-5-6-4-14 3-24 7-9 12-14 15-19 0 0 0-2 0-4z m-90 48c15 14 22 29 22 46 2 19-5 34-19 48-13 14-29 21-46 24-18-2-34-7-49-21-14-13-21-29-21-46-1-17 6-34 19-49 14-15 29-22 46-21 17-1 33 4 48 19z m89 171l0 25c0 7 1 11 5 11 2 0 7 0 12 0 5 0 8 0 12 0 7 0 10 3 13 8 4 5 4 10 0 16-1 5-5 13-8 25l3 5c4 2 7 5 14 7 5 2 9 5 12 7 2 2 7 0 12-2 2-3 5-7 8-12 4-5 7-8 9-12 8-8 17-8 24 0 10 11 17 19 20 24 5 5 9 5 12 2 17-10 28-17 28-17-2-5-4-10-6-15-3-7-5-12-5-16-1-5-1-8 0-13 4-6 7-7 11-7 17-2 25-4 27-5 3 0 5-2 5-7l0-28c0-3-2-5-5-5-10-3-21-5-27-5-6 0-9-1-12-7-7-3-9-6-7-12 2-1 7-10 12-25 1-2 1-4-4-9-13-8-22-13-24-13-1-2-5-2-8 0-5 5-10 10-17 20-9 10-17 10-26 0-8-10-13-17-17-20-3-5-7-5-12 0-1 0-3 1-8 3-5 3-9 5-11 5-8 4-8 9-5 16 2 5 5 13 9 23 2 6 2 9 0 14-4 5-7 7-10 7-4 0-9 0-14 0-5 0-9 0-12 0-7 2-10 5-10 12z m208-270c0-5-2-8-5-8-10-4-19-5-26-5-5 0-10-2-12-7-3-5-3-9 0-14 2-10 7-22 12-31-3-1-8-3-15-6-7-4-12-7-15-9-6 0-7 0-9 2-9 7-14 13-19 20-1 4-7 5-12 5-7 0-10-1-12-5-5-5-10-10-17-20-3-5-7-5-12-2-17 10-27 17-27 17 2 5 3 10 5 17 4 7 5 12 5 16 2 13-3 22-15 22-3 0-9 0-14 1-5 2-8 2-12 2-5 0-8 4-8 9l0 24c0 5 3 8 8 8 2 0 7 0 12 0 5 0 11 0 14 0 3 0 7 3 10 9 4 5 4 8 2 12-4 6-7 15-12 25l0 7 0-2c2 2 7 5 12 7 5 4 8 5 12 7 5 2 8 0 12-3 0-2 1-4 5-7 3-4 5-7 7-9 5-7 12-10 22-10 5 0 7 2 8 5 7 7 14 14 21 24 2 2 5 2 8 2 7-4 18-9 31-17-2-2-2-6-3-9-2-3-2-7-2-9 0-1-2-3-2-5-5-8-3-17 4-25 1 0 12-2 32-5 5-2 7-5 7-9-5-10-3-19 0-24z m-130 306c-7-7-10-16-10-24 0-9 3-17 10-24 7-7 16-10 22-10 11 0 19 3 24 10 5 7 11 15 11 24 0 22-12 32-35 32-6 2-15-1-22-8z m58-294c0 10-3 19-10 24-7 7-15 10-24 10-8 2-17-1-24-8-7-7-10-16-10-26 0-8 3-17 10-24 7-7 14-10 24-10 22 2 34 12 34 34z"/>
<glyph glyph-name="43" unicode="&#81;" d="M464 512l-145 0c-25 0-63-15-82-34l-223-224c-19-18-19-49 0-68l172-172c19-19 50-19 68 0l224 223c19 19 34 57 34 82l0 145c0 26-22 48-48 48z m-169-282c-3 7-7 19-20 33-12 12-21 10-26 5-7-7-3-17 7-38 14-29 12-47-3-64-17-18-41-19-67-2l-19-19-17 17 17 17c-12 12-20 28-24 39l28 16c3-12 10-26 22-38 10-10 22-13 29-7 7 7 5 18-4 36-13 26-17 48 0 67 16 15 40 17 64 2l17 17 17-17-16-16c12-12 17-24 21-32z m104 122c-27 0-47 22-47 47 0 28 22 48 47 48 28 0 48-22 48-48 0-25-20-47-48-47z"/>
<glyph glyph-name="44" unicode="&#82;" d="M466 466c-62 61-164 61-225 0-45-44-57-108-40-162l-181-183c-3-3-6-8-6-13l-14-79c-2-9 2-15 7-20 5-6 13-9 20-7l81 13c5 0 10 4 13 7l9 9-24 20c-7 7-7 19 0 26 7 7 19 7 25 0l24-24 17 17-37 38c-7 6-7 18 0 25 7 7 19 7 25 0l38-37 17 17-24 24c-7 6-7 18 0 25 7 7 19 7 26 0l24-24 61 62c55-19 118-5 162 39 63 63 63 164 2 227z m-48-150c-15-16-43-16-58 0l-44 44c-16 15-16 43 0 58 15 15 42 15 58 0l44-43c17-17 17-42 0-59z"/>
<glyph glyph-name="45" unicode="&#83;" d="M290 480c-121 0-220-98-222-219l-68 0 101-111 100 111-78 0c3 91 77 162 167 162 92 0 167-75 167-167 0-92-75-167-167-167-37 0-72 12-99 32l-37-41c37-29 85-48 136-48 123 0 222 101 222 224 0 123-99 224-222 224z m-20-105l0-128 82-81 27 27-72 72 0 110z"/>
<glyph glyph-name="46" unicode="&#84;" d="M287 201c-2 4-5 7-9 11-3 5-7 8-2 15 0 0 0 2 0 2 0 3 4 5 7 5 5 0 12 2 17 2 5 0 7 3 7 6 0 7 0 14 0 21 0 10 0 10-10 12-2 0-3 0-5 0-7 0-16 1-17 12 0 3-2 5 1 8 4 4 7 9 11 14 3 5 3 7 0 10-7 7-12 12-19 19-3 3-5 3-9 0-5-5-12-9-17-14-3 2-6 4-8 4-4 0-4 1-4 5 0 7-1 12-3 19 0 5-3 6-9 6-6 0-11 0-18 0-14 0-12 0-16-13 0 0 0-2 0-2-1-7 0-15-10-17-3 0-7 0-8 2-4 3-9 7-12 10-4 3-6 2-9 0-8-7-15-14-22-21-4-3-2-5 0-8 3-4 5-7 7-10 7-4 7-9 3-16-2-3-3-5-7-5-5 0-12-2-17-3-5 0-7-2-7-5 0-9 0-19 0-28 0-3 2-5 6-6 3 0 6-2 11-2 9 0 14-4 16-10 0-4 0-6-2-7-3-5-7-9-10-14-2-3-2-5 0-8 7-7 14-14 20-21 2-2 5-3 7 0 5 3 10 7 14 10 3 4 7 4 8 2 2 0 2-2 4-2 3 0 3-3 5-5 0-7 2-13 3-19 0-1 4-3 5-3 9 0 19 0 28 0 3 0 7 2 7 5 0 4 1 7 1 10 0 7 2 16 12 16 2 0 4 0 5 0 5-4 11-7 14-12 3-4 7-4 10 0 7 7 14 13 21 20 1 0 1 4 0 5z m-84 14c-20-2-41 21-39 43 0 20 19 41 43 39 20-2 40-19 39-43 0-20-21-41-43-39z m207-32c0 1 0 3-4 5-7 1-13 1-20 3-4 5-5 10-2 16 2 3 3 8 5 13-7 4-12 7-19 10-1 0-3 0-5-1-3-4-7-9-12-14-1-2-3-3-5-3-8 0-8 0-13 6-2 4-6 6-7 9-2 2-4 3-7 2-5-4-10-5-14-9 0 2 0 0 0-3 2-5 4-10 7-16 2-3-3-12-7-12-5 0-10-1-15-1-4 0-5-2-5-5 0-6 0-11 0-16 0-3 1-5 5-5 5 0 10-2 15-2 7 0 10-6 9-13-2-7-5-12-7-19 7-3 12-7 17-10 3-2 5-2 7 1 3 4 7 9 10 12 3 4 12 4 15 0 4-5 7-8 11-12 1-1 3-1 5-1 7 3 12 7 19 10-4 7-6 14-7 19-2 5 1 12 8 12 5 0 10 1 16 3 3 0 3 2 3 5-3 5-3 10-3 16z m-62-29c-10 0-20 10-20 20 0 12 10 22 20 21 12 0 21-9 21-21 0-12-9-20-21-20z m-56 170c5 0 10-1 15-1 5 0 10-7 7-12-2-6-3-9-5-14-2-3-2-7 3-9 4-1 9-5 12-6 2-2 5-2 7 0 4 3 7 8 10 12 5 5 12 5 16 0 3-4 7-9 10-12 2-2 3-2 5 0 5 1 10 5 15 8 2 2 4 4 2 5-2 5-3 10-7 16-1 5 4 12 9 12 5 0 10 1 17 3 2 0 3 2 3 3 0 6 0 12 0 17 0 2-1 4-3 4-5 2-10 2-17 3-5 0-10 7-7 12 2 7 5 12 7 19-7 3-12 7-17 10-2 2-4 2-7-1-3-6-7-9-12-14-3-4-10-4-14 0-3 5-6 8-10 14-2 1-3 3-7 1-5-3-10-5-15-8-2 0-2-4-2-4 2-5 4-10 5-15 2-3 2-5 0-9-1-3-5-5-8-5-5 0-9-1-14-1-3 0-3-2-3-6 0-5 0-10 0-15 0-5 1-7 5-7z m56 34c12 0 21-8 21-20 0-12-9-21-21-21-10 0-20 11-20 21 0 10 10 22 20 20z m-92 154c-142 0-256-114-256-256 0-142 114-256 256-256 142 0 256 114 256 256 0 142-114 256-256 256z m0-469c-118 0-215 95-215 213 0 118 97 215 215 215 118 0 215-96 215-215 0-118-97-213-215-213z"/>
<glyph glyph-name="47" unicode="&#85;" d="M480 512l-448 0c-18 0-32-14-32-32l0-448c0-17 14-32 32-32l448 0c17 0 32 14 32 32l0 448c0 18-14 32-32 32z m-161-32l33-64-65 0-31 64z m-126 0l32-64-65 0-32 64z m-161 0l33 0 32-64-65 0z m448-448l-448 0 0 352 448 0z m0 384l-64 0-32 64 63 0 33-33z m-125-194c15-9 15-21 0-29l-167-84c-16-8-29 0-29 17l0 161c0 17 13 25 29 17z"/>
<glyph glyph-name="48" unicode="&#86;" d="M375 495l-76 17-45-79 133-71 43 78z m-273-338l-20-38 12-71 8-48 45 19 66 27 21 38 143 261-131 71z m11-138l-7 42 51-25z"/>
<glyph glyph-name="49" unicode="&#87;" d="M282 208l0 12c0 14-12 26-26 26-14 0-26-12-26-26l0-12c0-13 12-25 26-25 14 0 26 12 26 25z m17-13c-5-19-23-33-43-33-20 0-38 14-43 33l-172 0c-10 0-21 1-31 6l0-114c0-22 19-41 41-41l410 0c22 0 41 19 41 41l0 114c-9-5-19-6-31-6z m170 206l-97 0c-5 38-37 65-77 65l-78 0c-40 0-70-29-77-65l-97 0c-24 0-43-19-43-41l0-94c0-22 19-41 41-41l171 0c0 12 5 22 13 31 2 2 4 3 5 5 0 0 2 0 2 2 2 2 4 2 5 3 2 0 4 2 5 2 2 0 2 2 4 2 3 0 5 1 8 1 4 0 5 0 9-1 2 0 2 0 3-2 2 0 4 0 5-2 2 0 4-1 5-3 0 0 2 0 2-2 2-2 4-3 5-5 9-7 14-19 14-31l171 0c22 0 41 19 41 41l0 94c3 22-16 41-40 41z m-290 0c5 15 21 27 38 27l78 0c17 0 33-12 38-27z"/>
<glyph glyph-name="50" unicode="&#88;" d="M423 181c-24 0-44-19-44-44 0-24 19-45 44-45 24 0 43 19 43 45 0 25-19 44-43 44z m0-56c-7 0-13 5-13 13 0 9 5 12 13 12 7 0 12-5 12-12 0-7-5-13-12-13z m-5 237l-75 0c-5 0-10-5-10-10l0-200c0-5 5-10 10-10l10 0c5 0 11 3 11 8 3 31 29 50 58 50 29 0 54-19 58-50 0-5 5-8 10-8l10 0c5 0 10 5 10 10l0 101c0 1 0 5-1 6l-82 99c-2 2-5 4-9 4z m-65-82l0 51c0 5 5 10 11 10l44 0c3 0 5-1 8-3l43-51c5-7 0-17-8-17l-87 0c-6 0-11 5-11 10z m-343-138l26 0c5 0 10 3 10 8 3 31 29 50 58 50 29 0 55-19 58-50 0-5 5-8 10-8l128 0c5 0 11 5 11 10l0 256c0 5-6 10-11 10l-290 0c-5 0-10-5-10-10l0-256c0-5 5-10 10-10z m94 39c-24 0-43-19-43-44 0-24 19-45 43-45 24 0 44 19 44 45 0 25-18 44-44 44z m0-56c-7 0-12 5-12 13 0 9 5 12 12 12 7 0 14-5 14-12 0-7-5-13-14-13z"/>
<glyph glyph-name="51" unicode="&#89;" d="M503 422c0 5-1 10-5 13l-61 62c-4 3-9 5-14 5-5 0-10-2-13-5l-405-401c-3-4-5-9-5-14 0-5 2-10 5-14l63-63c4-3 9-5 14-5 5 0 10 2 14 5l402 403c4 3 5 8 5 14z m-139-91l-35 34 93 92 34-34z m-292 101l10 31 31 8-33 10-8 31-11-31-29-8 31-9z m82-39l18-62 19 62 62 18-62 19-19 62-18-62-62-19z m327-111l-8 30-10-30-31-9 31-10 10-31 8 31 31 10z m-210 150l11 31 30 8-30 10-11 31-8-31-31-10 31-8z"/>
<glyph glyph-name="52" unicode="&#90;" d="M447 415c-43 44-95 66-157 66-61 0-113-20-155-65-43-44-65-95-67-155l-68 0 101-111 100 111-78 0c2 46 19 84 51 114 33 31 72 48 116 48 46 0 85-17 118-49 32-33 49-72 49-118 0-46-17-85-49-118-33-32-72-49-118-49-37 0-70 10-99 32l-37-41c41-32 85-48 136-48 62 0 114 23 157 67 43 44 65 96 65 157 0 61-22 114-65 159z m-155-217c-19 0-34 5-46 12l-9-33c10-6 29-11 48-11l0-28 27 0 0 29c33 5 50 28 50 53 0 26-14 41-48 53-24 9-34 15-34 24 0 8 5 15 24 15 20 0 34-7 41-10l8 33c-8 5-22 8-41 8l0 26-27 0 0-28c-29-6-46-25-46-51 0-27 20-41 51-51 21-7 31-14 31-24-2-12-12-17-29-17z"/>
<glyph glyph-name="53" unicode="&#48;" d="M328 447c0 36-31 65-69 65-37 0-68-29-68-65 0-36 31-65 68-65 38 0 69 29 69 65z m0-191c0 36-31 65-69 65-37 0-68-29-68-65 0-36 31-65 68-65 38 0 69 29 69 65z m0-191c0 36-31 65-69 65-37 0-68-29-68-65 0-36 31-65 68-65 38 0 69 29 69 65z"/>
</font>
</defs>
</svg>
